<svg id="6b6956e6-987b-487d-b0a8-17938f6fc1f2" data-name="Alaska Airlines" xmlns="http://www.w3.org/2000/svg" viewBox="0 0 70 70"><defs><style>.da073663-73f1-4005-9879-9178fc07e5c8{fill:#0a436a;}.\39 4ecf535-1d00-4043-b88c-a0443fa80bb8{fill:#2975af;}.\33 39eb701-1351-40da-b855-5c2eeac86f32{fill:#47a8c3;}.ad7b0518-b03a-4081-b0c0-fac49842532d{fill:#b2d57c;}.\34 c1aca65-b676-4592-b971-650750d12bde{fill:#b2d47c;}.\33 9539b2d-7d30-4ca3-b975-8b3a29181329{fill:#2a75ae;}.\32 1550ec7-5d03-499c-ad22-57c835258559{fill:#94be85;}.\37 a496628-497d-4888-a484-cfb2a377c403{fill:#a7ca7e;}.b9a6f71e-ea42-4888-b682-7116219fb94f{fill:#71a07b;}.\39 dd8e9f5-d810-4b1f-a90b-2a342938be5a{fill:#548a91;}.d0cd6b6b-5e4f-40a9-b2c2-e5bfd2da86f2{fill:#7aa78e;}.\37 75a7413-405b-4950-ac43-ffcd54809106{fill:#97bf87;}.\39 c06c062-fd5a-4f10-bf35-a4f61d5cc8a5{fill:#588b80;}.e13b6c7b-16ab-4513-b27a-bca9aec5dee3{fill:#0d446a;}.\31 68b12b0-63a5-4810-8ee7-eadeb7569e0f{fill:#71b19e;}.\33 b9a111e-cae1-4b67-a527-6c241d157ffa{fill:#b0d381;}.\34 a87f1ad-ed98-434b-9d5c-9ab3620a1c26{fill:#aacc7e;}.\34 60c0a7e-5936-4668-8701-ebf88c7eb0a3{fill:#fff;}.d767dbd0-9674-4621-a4f1-234da66ea728{fill:#89a5c0;}.d85b598d-9837-4450-9fbf-8f638c3ccbaf{fill:#8aa5c0;}.a1ee4002-3373-40d2-8f4f-938d1cdb69dd{fill:#fdfeff;}.c2f70cb7-f9c2-4b37-8a45-aa0b4d783f06{fill:#eff0f2;}.\37 d5306f6-06bf-4991-864e-fc3b33d8b417{fill:#88a3be;}.a44aeaa1-6a45-4462-abad-b01b3e4a5286{fill:#ebecef;}.\31 80b7107-8be8-4320-9046-dc578a09b60c{fill:#eceef0;}.c7a0a8d6-3e3a-47ed-bc47-9c5099c34c82{fill:#11496e;}.\31 247b330-01c8-49d2-89eb-14e51914fa60{fill:#144b6f;}.f89b3c8b-49a6-415f-923b-2576c9bb1f7a{fill:#7d9ab6;}.\32 bbb917e-bd9e-49ef-86eb-7c832aa8f4a7{fill:#12486e;}.\33 50d9da1-a7e8-4e12-889b-5b07796ba035{fill:#345479;}.fc6f16b3-e533-45dd-9cad-762013173e0f{fill:#10446b;}.\32 bc5c03f-1b80-4267-b1e0-b86e7ba270ea{fill:#85a2bd;}.\30 89049d7-bfda-4b6a-8ae1-b9385f02a3f4{fill:#e6e8eb;}.\39 119ccfc-43f9-4cc1-8d5c-d29a2c2de694{fill:#204971;}.d4281012-797c-4d5b-a31f-7ffb49a13529{fill:#10466c;}.\36 36e632a-4f48-4fbc-9d62-816b1bd0c375{fill:#0b4166;}.\34 46f7698-b000-4672-bc3a-ee8c8c51b4a4{fill:#e4e7ea;}.\31 4ad9de3-7f12-4f2c-bdaf-37c8ea011545{fill:#205074;}.\34 379319f-3bf1-4972-ae87-fc8b6f5fc522{fill:#6886a5;}.\38 e2da288-8e4a-4aff-a1ae-b9a674e1d528{fill:#245276;}.\34 cc0e9f1-f334-42f7-8bd6-01576df33c59{fill:#295779;}.bd366ea1-f231-4714-ba48-aa90cf1bae0a{fill:#c6ced8;}.e65a8f9c-e3a3-4031-baea-6d8d696514ed{fill:#24547a;}.\31 1349bd1-161b-4f92-8ae6-9888bc683099{fill:#305b7d;}.\33 65120ba-c189-4d41-a46c-e0db851ccf67{fill:#123960;}.f5024d1f-5e80-4705-a6cc-6197f593878b{fill:#123c63;}.\37 f4b02e1-008f-40ad-9443-ab4047b0b2aa{fill:#143b63;}.\38 fb1886a-a00b-4bc6-b8b0-6832e134cb4e{fill:#9cafbe;}.f56e55a5-f6e4-4934-9a8a-720d6a521c43{fill:#0d4066;}.\30 934bcc6-a511-4075-b50a-bbb08a679c80{fill:#143a62;}.\31 7bcea2f-94e8-4cf4-83a2-74ecda00f58a{fill:#ebebeb;}.\37 fc1850c-56e6-49c9-953e-320a092ae098{fill:#113b62;}.df2b579a-ead3-4129-9d24-f00ebbd1eb22{fill:#0e3d62;}.cf9ea900-a10d-4873-88df-e42b41aea842{fill:#567490;}.faf275fb-d799-4960-8891-3cd72fae39ab{fill:#123a60;}.ea601e93-954a-40e7-89b1-88b2aced22b5{fill:#0f3f65;}.\36 45c0334-50b2-4440-b5c3-a6b046e377ef{fill:#113a5f;}.b9884b4a-9560-4acf-ade0-7c93f7298b4a{fill:#567597;}.\30 7bdabcf-8f30-4cc9-961b-ef6d69e334fb{fill:#113d63;}.\34 d091b47-18ec-4789-bca2-efeccffb6a86{fill:#1c4d72;}.\30 d43df97-6222-4272-9759-a5d106bf4b0d{fill:#778da5;}</style></defs><title>Logo-70x70-AlaskaAirlines</title><path class="da073663-73f1-4005-9879-9178fc07e5c8" d="M0.15,71.87q0-35.51,0-71C0.13,0.15.28,0,1,0Q36.1,0,71.21,0a2.4,2.4,0,0,1,.09,1.16q0,34.75,0,69.5c0,0.26,0,.52,0,0.78a0.43,0.43,0,0,1-.54.5c-0.2,0-.39,0-0.59,0h-69A2.09,2.09,0,0,1,.15,71.87Z"/><path class="94ecf535-1d00-4043-b88c-a0443fa80bb8" d="M63,40.69c-0.19,1.78-.38,3.56-0.58,5.34a7.2,7.2,0,0,1-.62,2.05,0.65,0.65,0,0,1-.41.5c-1.05-.28-1.11.65-1.44,1.18-1.27,2-2.43,4.1-3.75,6.08-1.7,2.54-4.41,3.58-7.14,4.53a36.09,36.09,0,0,0-4.93,2.14,10.27,10.27,0,0,1-6,1.08c-1.4-.14-2.8-0.11-4.2-0.17s-3-.06-4.45-0.12a5.17,5.17,0,0,1-1.63-.15c-0.24-.09-0.58-0.1-0.56-0.43s0.35-.33.6-0.37,0.31-.08.47-0.1a8.45,8.45,0,0,1,1.47,0,6.9,6.9,0,0,0,3.61-.68c0.51-.28,1-0.35,1.14.47,0.09,0.66.51,0.34,0.8,0.23a19.71,19.71,0,0,0,5.15-3,24.08,24.08,0,0,1,7.62-3.95,3.54,3.54,0,0,1,1.64-.18,2,2,0,0,0,1.85-.68,13.76,13.76,0,0,1,3.17-2.6,18,18,0,0,0,2-2c1.8-1.44,2.38-3.55,3.32-5.48a2.78,2.78,0,0,0,.15-2.1,5.64,5.64,0,0,1,.14-4.2,0.84,0.84,0,0,0,0-.85,2.71,2.71,0,0,1-.29-2.15,6.38,6.38,0,0,0-1.28-5.17c-0.66-.77-1-1.61-0.12-2.51a0.78,0.78,0,0,0-.07-1.08c-0.31-.42-0.63-0.84-1-1.23a1.4,1.4,0,0,1-.46-0.63c-0.14-1.37-1.23-2.23-1.75-3.36a10.54,10.54,0,0,0-3.85-4.58,7,7,0,0,1-1.82-1.77,1.71,1.71,0,0,1-.49-1.61,1.32,1.32,0,0,1,1.56.06,11.27,11.27,0,0,1,3.13,2.16c1.81,1.79,3.6,3.61,5.41,5.4a1.85,1.85,0,0,1,.72,2,1.27,1.27,0,0,0,.24.92c1.19,2.55,1.9,5.28,3,7.88A3.8,3.8,0,0,1,63.69,33a12.67,12.67,0,0,1-.15,5,6.44,6.44,0,0,0-.27,1.12C63.05,39.6,63.16,40.17,63,40.69Z"/><path class="339eb701-1351-40da-b855-5c2eeac86f32" d="M5.83,31.59a27.34,27.34,0,0,1,.6-5.34,11.14,11.14,0,0,1,3-5.62c2.21-2.18,3.86-4.86,6.11-7a12.52,12.52,0,0,1,4.31-2.82,67.25,67.25,0,0,1,9.35-3.21,12.26,12.26,0,0,1,4.37-.33A5.66,5.66,0,0,0,35,7.15a30.8,30.8,0,0,1,7.53,1.52,20.06,20.06,0,0,1,5.06,2.08c0.83,0.5,1.84,1,1.67,2.27a3.42,3.42,0,0,1-3.39-1.09,1.38,1.38,0,0,0-1.19-.71,18.91,18.91,0,0,0-4.87-.28,1.16,1.16,0,0,1-1.4-.95,0.51,0.51,0,0,0-.74-0.48A9.13,9.13,0,0,1,34,9.75a6.26,6.26,0,0,0-2.54.65A11.21,11.21,0,0,1,28.7,11a4.67,4.67,0,0,0-2.18.84,16.37,16.37,0,0,0-3.64,2.8,3.19,3.19,0,0,1-1.83,1.08,2.65,2.65,0,0,0-1,.43,24.69,24.69,0,0,0-8.56,9.11,13.28,13.28,0,0,0-.89,3.1,40.48,40.48,0,0,1-1.9,6.07,7.34,7.34,0,0,0-.58,4.31,1.13,1.13,0,0,1-.25,1.1,1.39,1.39,0,0,1-1.12-1.33c-0.31-2.1-1.09-4.13-.86-6.3l-0.12-.4A0.32,0.32,0,0,1,5.83,31.59Z"/><path class="ad7b0518-b03a-4081-b0c0-fac49842532d" d="M49.25,13c-0.86-1.63-2.44-2.3-4-2.92a47,47,0,0,0-9.72-2.57c-0.22,0-.48,0-0.49-0.33a13.2,13.2,0,0,1,10,.78,66.43,66.43,0,0,1,10,5.58,41.82,41.82,0,0,1,5.75,5.84A8.38,8.38,0,0,1,62.55,24c0.44,3.11,1,6.18,1.7,9.25a4.71,4.71,0,0,1,.09,1.56,9.42,9.42,0,0,1-.5,2.16c-0.28-1.36,0-2.8-.5-4.12-1-2.8-1.88-5.63-3-8.37-0.2-.48-0.47-0.93-0.71-1.39-0.09-.17-0.25-0.44,0-0.51,1.06-.39.25-0.8,0-1.07-2-2-4-4-6-6a8.75,8.75,0,0,0-4.12-2.34A0.2,0.2,0,0,1,49.25,13Z"/><path class="4c1aca65-b676-4592-b971-650750d12bde" d="M19.74,61.68a10.22,10.22,0,0,1-5.14-3.74A46.86,46.86,0,0,0,10.87,53,19.4,19.4,0,0,1,6,41c-0.08-1.1-.25-2.2-0.37-3.3a26.85,26.85,0,0,1-.08-3.57,0.22,0.22,0,0,1,.21-0.22,0.51,0.51,0,0,1,.27.55A8.21,8.21,0,0,0,6.63,37c0.26,1.72,1,3.31,1.22,5A8.32,8.32,0,0,0,9.7,46.39a17.89,17.89,0,0,0,1.61,2.31c0.57,0.95.83,2,1.38,3a7.19,7.19,0,0,0,2.89,2.92,12.64,12.64,0,0,1,3.26,3.15A8.31,8.31,0,0,0,22,60.66c0.61,0.42,1.33.67,1.94,1.09a6.9,6.9,0,0,0,2.92,1,1,1,0,0,1,.25.12,3.15,3.15,0,0,0,1,.21,0.28,0.28,0,0,1,.17.22,0.46,0.46,0,0,1-.53.2,25.91,25.91,0,0,1-7.27-1.59C20.23,61.84,20,61.77,19.74,61.68Z"/><path class="39539b2d-7d30-4ca3-b975-8b3a29181329" d="M23.71,62a13.51,13.51,0,0,1-4.62-3.33,1.76,1.76,0,0,1-.52-0.81,0.94,0.94,0,0,1,1.14.25c1.82,1.21,3.81,2.14,5.73,3.18a8.57,8.57,0,0,0,2.43.72c0.34,0.07.75,0.08,0.75,0.59H27.56a18.27,18.27,0,0,0,4.24.6,4.59,4.59,0,0,1,2.11.18H29.8a2.72,2.72,0,0,0-.72,0,1,1,0,0,1-.84-0.22l-0.08,0-0.08,0A5.12,5.12,0,0,1,27,63h0A14.38,14.38,0,0,1,23.71,62Z"/><path class="21550ec7-5d03-499c-ad22-57c835258559" d="M63.34,32.8c0.63,1.2.34,2.52,0.45,4l0.54-2.08a9,9,0,0,1-.78,3.74c-0.38,0-.3-0.21-0.23-0.44A16.66,16.66,0,0,0,63.34,32.8Z"/><path class="7a496628-497d-4888-a484-cfb2a377c403" d="M19.74,61.68a9.15,9.15,0,0,1,2.44.69,28.35,28.35,0,0,0,5.66,1.07q0.18,0.1,0,.19A20.62,20.62,0,0,1,19.74,61.68Z"/><path class="b9a6f71e-ea42-4888-b682-7116219fb94f" d="M5.67,34l0,3.73a13.54,13.54,0,0,1,.19-6.13l0,0.26a1.29,1.29,0,0,1,.16.93A2.23,2.23,0,0,1,5.67,34Z"/><path class="9dd8e9f5-d810-4b1f-a90b-2a342938be5a" d="M63,40.69a3.37,3.37,0,0,1,.17-1.62,0.34,0.34,0,0,1,.23.24A3.06,3.06,0,0,1,63,40.69Z"/><path class="d0cd6b6b-5e4f-40a9-b2c2-e5bfd2da86f2" d="M63.37,39.3l-0.23-.24a2,2,0,0,1,.19-1l0.23,0.44Z"/><path class="775a7413-405b-4950-ac43-ffcd54809106" d="M27.84,63.62q0-.09,0-0.19l0.4-.22,1,0c0.05,0.5-.46.12-0.58,0.37H27.84Z"/><path class="9c06c062-fd5a-4f10-bf35-a4f61d5cc8a5" d="M28.62,63.61l0.58-.37a0.64,0.64,0,0,1,.6.18A2,2,0,0,1,28.62,63.61Z"/><path class="e13b6c7b-16ab-4513-b27a-bca9aec5dee3" d="M28.63,62.63c-3-.3-5.31-2-7.84-3.33-0.77-.4-1.48-0.93-2.21-1.4-0.79-.9-1.9-1.49-2.49-2.58a0.57,0.57,0,0,0-.3-0.24c-2.72-.92-3.62-3.27-4.47-5.66L11.14,49c-0.88-2.58-2.35-4.9-3.21-7.49a1.89,1.89,0,0,1-.1-1.59,11.72,11.72,0,0,1,1.22-7.5,12.54,12.54,0,0,0,1-3.48C10.61,25,12.75,22,15.45,19.36a13.5,13.5,0,0,1,4.12-3.27c2.57-1,4.24-3.19,6.56-4.47a7,7,0,0,1,3-1.06,18,18,0,0,0,3.66-1.05,3.53,3.53,0,0,1,1.64-.15A8.09,8.09,0,0,0,38.21,9c0.59-.17,1-0.18.64,0.67s0.31,1,.86.93c1.86-.37,3.64.17,5.45,0.32,0.49,0,1.29-.09,1,0.94-0.09.36,0.41,0.45,0.71,0.54,0.78,0.22,1.58.41,2.37,0.62l0.16,0.15a7.34,7.34,0,0,0,3.11,3.55,7.9,7.9,0,0,1,3,3.63,1.83,1.83,0,0,0,.38.79c1.62,1.23,1.42,3.54,3,4.85,0.86,0.73.75,1.29-.09,2a0.62,0.62,0,0,0-.14.93,4.4,4.4,0,0,0,.44.65c1.66,1.83,1.77,4,1.34,6.26a0.82,0.82,0,0,0,.28,1,0.92,0.92,0,0,1,.16,1.25,5.08,5.08,0,0,0-.2,4.08,3.43,3.43,0,0,1-.57,3.16,3.35,3.35,0,0,0-.68,2,1.09,1.09,0,0,1-.53,1A6.83,6.83,0,0,0,57,50.19a8.23,8.23,0,0,1-2.91,2.57,9.12,9.12,0,0,0-2.25,2,2.18,2.18,0,0,1-2.2.74,2.19,2.19,0,0,0-1.25.09,25.15,25.15,0,0,0-7.62,3.93,19.85,19.85,0,0,1-5.49,3.19,1,1,0,0,1-1.19.05c-0.44-.39.16-0.69,0.15-1.26C32.51,62.85,30.55,62.63,28.63,62.63Z"/><path class="339eb701-1351-40da-b855-5c2eeac86f32" d="M7.84,39.87A33.59,33.59,0,0,0,10.4,46a6.72,6.72,0,0,1,.74,3C9,46.6,7.43,44,7.2,40.75a14.39,14.39,0,0,0-.73-3.63,9,9,0,0,1-.52-2.64A6.12,6.12,0,0,1,6,32a0.32,0.32,0,0,1,.28.42,6.49,6.49,0,0,0,.36,3.83C7.19,37.44,6.74,38.91,7.84,39.87Z"/><path class="168b12b0-63a5-4810-8ee7-eadeb7569e0f" d="M6,32v2.55q-0.14.18-.17,0l0-.55a1.71,1.71,0,0,1,0-1.17l0-1Z"/><path class="7a496628-497d-4888-a484-cfb2a377c403" d="M23.71,62l3.35,1A6.21,6.21,0,0,1,23.71,62Z"/><path class="3b9a111e-cae1-4b67-a527-6c241d157ffa" d="M5.86,34.53l0.17,0,0.43,2.55A4.65,4.65,0,0,1,5.86,34.53Z"/><path class="4a87f1ad-ed98-434b-9d5c-9ab3620a1c26" d="M5.83,32.81l0,1.17H5.67A2,2,0,0,1,5.83,32.81Z"/><path class="7a496628-497d-4888-a484-cfb2a377c403" d="M27,63a1.69,1.69,0,0,1,1,.19A1.2,1.2,0,0,1,27,63Z"/><path class="460c0a7e-5936-4668-8701-ebf88c7eb0a3" d="M39.45,43.12v-0.5C39,42,38.22,42,37.66,41.61c-0.91-.69-1.06-1.9-1.82-2.69-0.29.07-.3,0.1-0.18,0.6,0.14,0.71-.21.89-0.82,0.72a10.39,10.39,0,0,1-1.47-.48,3.06,3.06,0,0,0-2.8.06,1.48,1.48,0,0,1-2.22-.18,1.2,1.2,0,0,1,.11-1.12h0c-0.12-.38-0.13-0.38-0.61-0.21h0a2.58,2.58,0,0,1-.3.73,1.72,1.72,0,0,0-.51,1,2.68,2.68,0,0,1-1.94,2.4,0.85,0.85,0,0,0-.68.93,31,31,0,0,1,0,3.41c0,0.28,0,.55.42,0.47A1,1,0,0,1,25.46,47c0.84,0.46.53,1.19,0.35,1.8a6.33,6.33,0,0,0-.57,1.63,0.45,0.45,0,0,1-.47.42A0.85,0.85,0,0,1,24,50.38a4.4,4.4,0,0,1-.73-2.69c0.11-1.79.23-3.58,0.2-5.38a11.92,11.92,0,0,0-.12-1.36,0.59,0.59,0,0,0-1.12-.32,3.15,3.15,0,0,1-.75.84,0.37,0.37,0,0,1-.17-0.16A7.83,7.83,0,0,1,22.48,36c0.46-.66,1.09-0.4,1.66-0.08s1,0.39,1.18-.37a0.47,0.47,0,0,1,.36-0.42c1.57,0,2.77-1.7,4.54-1a0.77,0.77,0,0,0,1-.74c0.13-.54.23-1.08,0.36-1.62a0.7,0.7,0,0,1,.56-0.61,0.73,0.73,0,0,1,.7.44c0.32,0.49.63,1,1,1.47,0.54,0.81,1.63.83,2.26,1.58,0.23,0.27.85-.07,1.26-0.29a4.6,4.6,0,0,1,3.69.06l1.13,0.71a2,2,0,0,1,1,1c0.21,0.37.52,0.16,0.79,0.13,0.26-.67.59-0.52,1-0.08l0.21,0.12a1.53,1.53,0,0,0,.77.17c0.19-.66-0.5-0.64-0.74-1s-0.38-.4.06-0.47a0.73,0.73,0,0,1,.71.1c1.94,1,2,1.2.78,2.93A6,6,0,0,0,45.45,42c0,1.21,0,2.41.05,3.62a2.12,2.12,0,0,1-1,2,3.21,3.21,0,0,0-1.09,1,1.18,1.18,0,0,1-1.33.56,4.81,4.81,0,0,0-1.07,0,0.73,0.73,0,0,0-.75,1.06c0.29,0.87-.23,1.17-0.93,1.21-1.62.08-2.92-.79-4.25-1.55a1,1,0,0,1-.27-0.9,1.17,1.17,0,0,0-1.41-1.23,17.83,17.83,0,0,1-4-.27c-0.37-.05-0.9.12-1.05-0.32s0.39-.67.69-0.93a1.81,1.81,0,0,1,1.28,0,38.69,38.69,0,0,0,6.09-.1c0.93,0,1.85-.11,2.78-0.2a1.51,1.51,0,0,1,.36.4A4.18,4.18,0,0,0,39.45,43.12Z"/><path class="460c0a7e-5936-4668-8701-ebf88c7eb0a3" d="M40.58,23.4A5.34,5.34,0,0,0,43,25.75a0.58,0.58,0,0,0,.64.1c0.26-.22-0.06-0.39-0.12-0.59-0.16-.52-0.8-1.19-0.18-1.54s1,0.46,1.31.93a9,9,0,0,1,1.58,4.48c0.12,1.43-.6,2-1.92,1.38a28.36,28.36,0,0,1-2.93-1.57,9.59,9.59,0,0,0-7.78-.7,2.64,2.64,0,0,0-1.65,1.15,0.59,0.59,0,0,1-.6.41c-0.29-.07-0.21-0.37-0.23-0.58a1.28,1.28,0,0,0-1.51-1.3c-0.85,0-1.7.08-2.54,0.11-0.44,0-1,.24-1.23-0.29a1.15,1.15,0,0,1,.47-1.21,17.07,17.07,0,0,1,6.08-4.37,8.89,8.89,0,0,1,3.23-.73,2.35,2.35,0,0,1,2.29,1.19,4.09,4.09,0,0,0,1.25,1.57c0.49,0,.41-0.29.25-0.59a0.32,0.32,0,0,1,0-.47C39.94,22.55,40.27,22.93,40.58,23.4Z"/><path class="d767dbd0-9674-4621-a4f1-234da66ea728" d="M17.41,22.41C17.1,24.27,17,26,15.56,27.47c-1.67,1.73-1.8,4.14-2,6.42s-0.16,4.31-.22,6.47c0,0.26.17,0.67-.25,0.73a0.55,0.55,0,0,1-.48-0.54c-0.62-3.52-1.75-7-.78-10.65a11,11,0,0,1,3-4.66Z"/><path class="d85b598d-9837-4450-9fbf-8f638c3ccbaf" d="M55.66,29.67c-1-3.65-3.7-6.26-5.69-9.3a8.47,8.47,0,0,0-2.77-2.31c-0.24-.15-0.64-0.31-0.54-0.61s0.56-.18.86-0.15c2.5,0.24,4,1.6,5.25,3.8A31.87,31.87,0,0,1,55,25.22a9.72,9.72,0,0,1,.72,1.49A10.19,10.19,0,0,1,57,31a1.25,1.25,0,0,1,.06.3c0,0.51,0,1,0,1.52a1.42,1.42,0,0,1,0,.3c-0.16.66,0,1.35-.27,2a0.28,0.28,0,0,1-.29,0,3.73,3.73,0,0,1-.31-1.8,1.17,1.17,0,0,1,0-.3A12.14,12.14,0,0,0,55.66,29.67Z"/><path class="a1ee4002-3373-40d2-8f4f-938d1cdb69dd" d="M24.14,35.93c-1.49-.47-1.82.34-2.17,1.28a8.92,8.92,0,0,0-.58,4,2.32,2.32,0,0,0,.74-0.74c0.5-.59,1-0.49,1.29.25a2.23,2.23,0,0,1,.09.77,46.43,46.43,0,0,1-.16,6A4.36,4.36,0,0,0,24,50.18a0.67,0.67,0,0,0,.73.35c0.41,0,.31-0.32.38-0.56a4.61,4.61,0,0,0,.58-2,0.73,0.73,0,0,0-.49-0.84c0.6-.36.89-0.28,1,0.32a2.53,2.53,0,0,1-.29,1.67c-0.66,1.23-.5,1.76.78,2.24a6.55,6.55,0,0,0,4.13.41,0.74,0.74,0,1,1,.7,1.28,3.59,3.59,0,0,0-1.12,1.57,0.76,0.76,0,0,1-1.25.42,10.37,10.37,0,0,1-1.78-1.38c-0.86-.76-1.75-1.47-2.62-2.22a4.39,4.39,0,0,1-1.58-3.55c0-2.09.28-4.18,0.11-6.27,0-.41.11-1-0.36-1.14s-0.65.43-.93,0.72-0.29.6-.64,0.5A0.62,0.62,0,0,1,21,40.92a9.69,9.69,0,0,1,1.07-4.63C22.72,35.26,23.14,35.21,24.14,35.93Z"/><path class="a1ee4002-3373-40d2-8f4f-938d1cdb69dd" d="M30.83,44.4a3.36,3.36,0,0,0,.85-0.46c1.46-1.48,3.37-1.58,5.25-1.72,0.95-.07,1.4.7,2,1.21a1.41,1.41,0,0,1,0,1.49,4.47,4.47,0,0,1-1.72.62h0a5.08,5.08,0,0,1-2.53,0h0c-1.15-.07-2.3-0.15-3.45-0.27a0.83,0.83,0,0,1-.75-0.36A0.35,0.35,0,0,1,30.83,44.4Z"/><path class="c2f70cb7-f9c2-4b37-8a45-aa0b4d783f06" d="M41.37,33.78L41,33.39a4.15,4.15,0,0,1-.56-0.85C40.17,31.76,39.55,32,39,32.06c-0.29,0-.58.08-0.87,0.11a0.28,0.28,0,0,1-.35-0.26A0.49,0.49,0,0,1,38,31.6a2.63,2.63,0,0,1,3.07.27,6.74,6.74,0,0,0,1.82,1.73,2.3,2.3,0,0,1,.78.33c0.39,0.25.42,0.47-.07,0.61a1.92,1.92,0,0,1-.83-0.08,0.33,0.33,0,0,1-.44-0.09A3.48,3.48,0,0,1,41.37,33.78Z"/><path class="7d5306f6-06bf-4991-864e-fc3b33d8b417" d="M54.89,48.28a2.84,2.84,0,0,0,.28-1.78c-0.15-.69.93-2.27,1.83-2.9a6.92,6.92,0,0,1-1.86,5.14C54.8,48.74,54.79,48.54,54.89,48.28Z"/><path class="a44aeaa1-6a45-4462-abad-b01b3e4a5286" d="M27.42,32.59l-1.7.45c-0.37.1-.74,0.15-0.89-0.31a0.59,0.59,0,0,1,.51-0.78c1-.33,2-0.84,3.09-0.15,0.12,0.26.67-.06,0.62,0.44a1.25,1.25,0,0,1-1.09.27A0.9,0.9,0,0,0,27.42,32.59Z"/><path class="180b7107-8be8-4320-9046-dc578a09b60c" d="M26,43.21L26.26,43c0.39-.19.72-0.85,1.23-0.3a1,1,0,0,1-.18,1.49,2.53,2.53,0,0,1-.89.75h0c-0.33.29-.72,0.54-1.08,0.15a0.92,0.92,0,0,1,.13-1.28h0A1.58,1.58,0,0,1,26,43.21Z"/><path class="a1ee4002-3373-40d2-8f4f-938d1cdb69dd" d="M24.89,47.51c-0.56.23-1,.43-0.84-0.56a9.22,9.22,0,0,0,.09-3,1.33,1.33,0,0,1,.95-1.77c1.25-.32,1.48-1.39,1.77-2.41a0.87,0.87,0,0,1,.63-0.87,0.53,0.53,0,0,1,0,.58l-0.22.33c-0.31.75-.05,1.77-1,2.19l-0.31.23a4.9,4.9,0,0,1-1.07.56l-0.14.14A38.83,38.83,0,0,0,24.6,47,1.33,1.33,0,0,0,24.89,47.51Z"/><path class="c7a0a8d6-3e3a-47ed-bc47-9c5099c34c82" d="M56.49,35.12h0.2c0.28-.68-0.1-1.44.21-2.12h0a3.88,3.88,0,0,0,0-1.8h0c-0.13-1.11-.41-2.2-0.46-3.32,0.83,1,.64,2.34.81,3.53a11,11,0,0,1-.17,3.39,0.54,0.54,0,0,1-.37.61A0.58,0.58,0,0,1,56.07,35a2.23,2.23,0,0,1-.15-0.56c-0.08-1.33-.14-2.65-0.2-4a2.4,2.4,0,0,1,.46,1.64,10.79,10.79,0,0,1,.09,1.15h0C56.59,33.81,56.21,34.5,56.49,35.12Z"/><path class="1247b330-01c8-49d2-89eb-14e51914fa60" d="M24.89,47.51A0.48,0.48,0,0,1,24.4,47a19.51,19.51,0,0,0,0-3.58,1.2,1.2,0,0,1,.24-0.51V47.1c0.56-.44,1.1-0.7,1.39-0.17a1.79,1.79,0,0,1-.2,2.16,8.46,8.46,0,0,0,.2-1.54c0-.49-0.24-1-0.86-0.45Z"/><path class="f89b3c8b-49a6-415f-923b-2576c9bb1f7a" d="M20.82,19.16a2.79,2.79,0,0,1-1.13,1.64,0.46,0.46,0,0,1-.62,0,0.52,0.52,0,0,1,0-.64A2.67,2.67,0,0,1,20.82,19.16Z"/><path class="2bbb917e-bd9e-49ef-86eb-7c832aa8f4a7" d="M36.48,46.18a25.68,25.68,0,0,1-6.2.1c-0.42,0-.84-0.06-1.26-0.08A0.85,0.85,0,0,1,29.92,46a25.52,25.52,0,0,0,6.56,0Q36.67,46.06,36.48,46.18Z"/><path class="2bbb917e-bd9e-49ef-86eb-7c832aa8f4a7" d="M30.83,44.4c-0.45.52-.13,0.64,0.35,0.69l3.56,0.44a18.7,18.7,0,0,1-3.7-.18,0.57,0.57,0,0,1-.59-0.42A0.39,0.39,0,0,1,30.83,44.4Z"/><path class="350d9da1-a7e8-4e12-889b-5b07796ba035" d="M39.45,43.12a1.09,1.09,0,0,1,.44,1.18c0,1-.17,2-0.26,3-0.45,0-.26-0.33-0.3-0.55a3.6,3.6,0,0,1,.23-0.89A8.21,8.21,0,0,0,39.45,43.12Z"/><path class="fc6f16b3-e533-45dd-9cad-762013173e0f" d="M26.43,45c0.21-.2.43-0.39,0.62-0.61a1.18,1.18,0,0,0,.38-1.48c-0.4-.61-0.75.25-1.17,0.14a0.83,0.83,0,0,1,1.2-.47,1,1,0,0,1,.18,1.4A1.65,1.65,0,0,1,26.43,45Z"/><path class="2bc5c03f-1b80-4267-b1e0-b86e7ba270ea" d="M56.44,27.91a12.73,12.73,0,0,1,.46,3.32,1.78,1.78,0,0,1-.27-1.29c-0.07-1.15-.72-2.13-0.92-3.23Z"/><path class="089049d7-bfda-4b6a-8ae1-b9385f02a3f4" d="M43.85,33.23c-0.16-.09-0.17-0.19,0-0.28a5.37,5.37,0,0,0,1.06-.16,3.39,3.39,0,0,1,1-.14c0.5,0.07.54,0.31,0.07,0.55A6.87,6.87,0,0,1,43.85,33.23Z"/><path class="2bc5c03f-1b80-4267-b1e0-b86e7ba270ea" d="M56.28,33.21c-0.3-.91-0.1-1.92-0.55-2.8l-0.06-.74A5.77,5.77,0,0,1,56.28,33.21Z"/><path class="9119ccfc-43f9-4cc1-8d5c-d29a2c2de694" d="M39.56,45.91a1,1,0,0,1-.12.82,1.79,1.79,0,0,1-.2-0.59c-0.39-.49-0.75.06-1.13,0-0.54,0-1.08,0-1.63,0V46C37.5,46.15,38.52,45.52,39.56,45.91Z"/><path class="d4281012-797c-4d5b-a31f-7ffb49a13529" d="M41,34.48a8.55,8.55,0,0,0-3.69-.06V34.17c0.29-.23.69,0,1-0.19C39.16,34,40.15,33.75,41,34.48Z"/><path class="fc6f16b3-e533-45dd-9cad-762013173e0f" d="M25.49,43.8a1.26,1.26,0,0,0-.1,1.18c0.33,0.41.7,0,1.06,0a0.67,0.67,0,0,1-1.12.25A0.85,0.85,0,0,1,25.49,43.8Z"/><path class="fc6f16b3-e533-45dd-9cad-762013173e0f" d="M28.44,39.66c0.66,0.63,1.4.31,2.12,0.16a1.34,1.34,0,0,1-1.53.45,1.62,1.62,0,0,1-.81-0.59Q28.32,39.5,28.44,39.66Z"/><path class="fc6f16b3-e533-45dd-9cad-762013173e0f" d="M26.18,42c0.81-.51.51-1.55,1-2.19C27.05,40.62,27.37,41.67,26.18,42Z"/><path class="636e632a-4f48-4fbc-9d62-816b1bd0c375" d="M11.1,32v2.3H11V32h0.1Z"/><path class="446f7698-b000-4672-bc3a-ee8c8c51b4a4" d="M42.77,34.46c0.25,0,.49-0.05.74-0.1,0.42-.09.06-0.24,0-0.37a0.67,0.67,0,0,1,.94.13c0.16,0.2,0,.35-0.18.43h0a1.76,1.76,0,0,1-1.37,0A0.62,0.62,0,0,0,42.77,34.46Z"/><path class="14ad9de3-7f12-4f2c-bdaf-37c8ea011545" d="M37.66,41.61c0.61,0.3,1.49.13,1.78,1A6.5,6.5,0,0,1,37.66,41.61Z"/><path class="d4281012-797c-4d5b-a31f-7ffb49a13529" d="M44.29,34.55c0.21-.82-0.46-0.42-0.75-0.56l-0.64-.39a8.24,8.24,0,0,1,1.34.22C44.68,34,45,34.25,44.29,34.55Z"/><path class="4379319f-3bf1-4972-ae87-fc8b6f5fc522" d="M54.89,48.28l0.26,0.46a1.64,1.64,0,0,1-.6.77c-0.19,0-.29,0-0.24-0.24Z"/><path class="2bbb917e-bd9e-49ef-86eb-7c832aa8f4a7" d="M34.71,45.53h2.53A3.08,3.08,0,0,1,34.71,45.53Z"/><path class="8e2da288-8e4a-4aff-a1ae-b9a674e1d528" d="M45.88,35.18c-0.22.19-.82-0.38-0.77,0.37-0.23,0-.49-0.09-0.47-0.37S44.9,35,45.09,35A0.89,0.89,0,0,1,45.88,35.18Z"/><path class="2bbb917e-bd9e-49ef-86eb-7c832aa8f4a7" d="M37.22,45.53L38.79,45q0.14-.15.24,0A2.55,2.55,0,0,1,37.22,45.53Z"/><path class="4cc0e9f1-f334-42f7-8bd6-01576df33c59" d="M40.58,23.4c-0.36-.22-0.67-0.73-1.18-0.25C39.89,22.46,40.13,22.51,40.58,23.4Z"/><path class="bd366ea1-f231-4714-ba48-aa90cf1bae0a" d="M43.85,33.23l2.09,0A2.5,2.5,0,0,1,43.85,33.23Z"/><path class="e65a8f9c-e3a3-4031-baea-6d8d696514ed" d="M27.42,32.59l0.41-.19a2.46,2.46,0,0,1,1.58,0q0,0.09,0,.19a3.36,3.36,0,0,1-1.53,0Z"/><path class="11349bd1-161b-4f92-8ae6-9888bc683099" d="M28.44,39.66l-0.22,0c-0.1-.42-0.36-0.88.24-1.16A2.36,2.36,0,0,0,28.44,39.66Z"/><path class="14ad9de3-7f12-4f2c-bdaf-37c8ea011545" d="M39,45l-0.24,0a1.53,1.53,0,0,0,.15-1.53A1.23,1.23,0,0,1,39,45Z"/><path class="8e2da288-8e4a-4aff-a1ae-b9a674e1d528" d="M44.88,36.22c-0.33-.15-0.69-0.53-1,0.08,0-.2-0.19-0.47.15-0.54A0.6,0.6,0,0,1,44.88,36.22Z"/><path class="d4281012-797c-4d5b-a31f-7ffb49a13529" d="M43.13,36.17l-1-1A1.08,1.08,0,0,1,43.13,36.17Z"/><path class="365120ba-c189-4d41-a46c-e0db851ccf67" d="M27.72,31.19H26.65A1.08,1.08,0,0,1,27.72,31.19Z"/><path class="f5024d1f-5e80-4705-a6cc-6197f593878b" d="M27.87,32.65l1.53,0A1.58,1.58,0,0,1,27.87,32.65Z"/><path class="7f4b02e1-008f-40ad-9443-ab4047b0b2aa" d="M29.46,28.25h-1A1.06,1.06,0,0,1,29.46,28.25Z"/><path class="8fb1886a-a00b-4bc6-b8b0-6832e134cb4e" d="M29.41,32.42H27.83A2.57,2.57,0,0,1,29,32.19a0.3,0.3,0,0,1,.4,0v0.21Z"/><path class="f56e55a5-f6e4-4934-9a8a-720d6a521c43" d="M54.84,23.42a1,1,0,0,1,0,.89A1,1,0,0,1,54.84,23.42Z"/><path class="fc6f16b3-e533-45dd-9cad-762013173e0f" d="M24.8,42.79a1.87,1.87,0,0,1,1.07-.56A1.2,1.2,0,0,1,24.8,42.79Z"/><path class="d4281012-797c-4d5b-a31f-7ffb49a13529" d="M41.37,33.78a1.7,1.7,0,0,1,1,.6A1,1,0,0,1,41.37,33.78Z"/><path class="11349bd1-161b-4f92-8ae6-9888bc683099" d="M27.44,39.48l0-.58,0.36-.58A1.37,1.37,0,0,1,27.44,39.48Z"/><path class="d4281012-797c-4d5b-a31f-7ffb49a13529" d="M42.94,34.55l1.37,0A1.07,1.07,0,0,1,42.94,34.55Z"/><path class="0934bcc6-a511-4075-b50a-bbb08a679c80" d="M42.69,49.57a0.62,0.62,0,0,1-.62.06A0.43,0.43,0,0,1,42.69,49.57Z"/><path class="17bcea2f-94e8-4cf4-83a2-74ecda00f58a" d="M29.4,32.21l-0.4,0-0.57-.39A1,1,0,0,1,29.4,32.21Z"/><path class="d4281012-797c-4d5b-a31f-7ffb49a13529" d="M40.42,32.54a1.73,1.73,0,0,1,.56.85A0.92,0.92,0,0,1,40.42,32.54Z"/><path class="7fc1850c-56e6-49c9-953e-320a092ae098" d="M38.24,34a1.45,1.45,0,0,1-1,.19A1.37,1.37,0,0,1,38.24,34Z"/><path class="8e2da288-8e4a-4aff-a1ae-b9a674e1d528" d="M45.85,36.52c-0.33.27-.54,0-0.77-0.17A1.14,1.14,0,0,1,45.85,36.52Z"/><path class="df2b579a-ead3-4129-9d24-f00ebbd1eb22" d="M21.05,38.25a0.37,0.37,0,0,1,0-.5A0.37,0.37,0,0,1,21.05,38.25Z"/><path class="11349bd1-161b-4f92-8ae6-9888bc683099" d="M27.85,38.31a0.42,0.42,0,0,1,.63-0.17c0.16,0.1.11,0.26,0,.38A0.72,0.72,0,0,0,27.85,38.31Z"/><path class="cf9ea900-a10d-4873-88df-e42b41aea842" d="M35.65,39.51a0.43,0.43,0,0,1-.16-0.58c0.07-.14.21-0.24,0.34,0Z"/><path class="faf275fb-d799-4960-8891-3cd72fae39ab" d="M39.81,32.26a0.62,0.62,0,0,1-.6.12A0.62,0.62,0,0,1,39.81,32.26Z"/><path class="ea601e93-954a-40e7-89b1-88b2aced22b5" d="M25.38,27.35a0.38,0.38,0,0,1,.05.42c0,0.08-.11.08-0.12,0A0.36,0.36,0,0,1,25.38,27.35Z"/><path class="df2b579a-ead3-4129-9d24-f00ebbd1eb22" d="M32.24,52.58c-0.11-.15-0.13-0.39,0-0.43s0.1,0.17.1,0.27A0.41,0.41,0,0,1,32.24,52.58Z"/><path class="645c0334-50b2-4440-b5c3-a6b046e377ef" d="M29,40.27H30A0.68,0.68,0,0,1,29,40.27Z"/><path class="4cc0e9f1-f334-42f7-8bd6-01576df33c59" d="M39.4,23.61a0.46,0.46,0,0,1,.13.61c-0.11.19-.26,0.13-0.38,0A0.72,0.72,0,0,0,39.4,23.61Z"/><path class="b9884b4a-9560-4acf-ade0-7c93f7298b4a" d="M54.32,49.28l0.24,0.24c-0.1.15-.24,0.4-0.39,0.28S54.18,49.43,54.32,49.28Z"/><path class="07bdabcf-8f30-4cc9-961b-ef6d69e334fb" d="M45.43,31.14c-0.14.12-.38,0.14-0.42,0s0.16-.1.27-0.11A0.37,0.37,0,0,1,45.43,31.14Z"/><path class="fc6f16b3-e533-45dd-9cad-762013173e0f" d="M26,43.21l-0.56.6A0.58,0.58,0,0,1,26,43.21Z"/><path class="bd366ea1-f231-4714-ba48-aa90cf1bae0a" d="M44.91,32.8a1.24,1.24,0,0,1-1.06.16A1.77,1.77,0,0,1,44.91,32.8Z"/><path class="4d091b47-18ec-4789-bca2-efeccffb6a86" d="M38.25,35.48a3.32,3.32,0,0,0,2-.23c0.15-.08.33-0.13,0.39,0.08a0.46,0.46,0,0,1-.11.34c-0.54.67-3.23,1.08-4,.63a0.44,0.44,0,0,1-.25-0.48,0.4,0.4,0,0,1,.41-0.34h1.6Z"/><path class="4d091b47-18ec-4789-bca2-efeccffb6a86" d="M41.65,45.65c0,0.49,0,1-.1,1.45a0.47,0.47,0,0,1-.63.44c-0.36-.08-0.31-0.35-0.24-0.62a7.31,7.31,0,0,0,0-3.66c-0.06-.22-0.13-0.49.15-0.58s0.32,0.22.42,0.41A5,5,0,0,1,41.65,45.65Z"/><path class="4d091b47-18ec-4789-bca2-efeccffb6a86" d="M26.33,36.83c-0.09,0-.31,0-0.53-0.1a0.37,0.37,0,0,1-.36-0.38,0.35,0.35,0,0,1,.34-0.3,6.81,6.81,0,0,0,2.69-.81,0.6,0.6,0,0,1,.81.34c0.16,0.31-.17.46-0.39,0.56A5.44,5.44,0,0,1,26.33,36.83Z"/><path class="0d43df97-6222-4272-9759-a5d106bf4b0d" d="M39.24,46.14l0.2,0.59a0.56,0.56,0,0,0,.19.61c-0.12.34-.34,0.45-0.42,0A5.22,5.22,0,0,1,39.24,46.14Z"/><path class="2bc5c03f-1b80-4267-b1e0-b86e7ba270ea" d="M56.9,33a4,4,0,0,1-.21,2.12C56.77,34.41,56.48,33.67,56.9,33Z"/><path class="2bc5c03f-1b80-4267-b1e0-b86e7ba270ea" d="M56.49,35.12c-0.46-.6-0.18-1.28-0.22-1.92C56.69,33.8,56.4,34.48,56.49,35.12Z"/><path class="2bc5c03f-1b80-4267-b1e0-b86e7ba270ea" d="M56.89,31.22a2.68,2.68,0,0,1,0,1.8Q56.89,32.11,56.89,31.22Z"/></svg>