<?xml version="1.0" encoding="utf-8"?>
<!-- Generator: Adobe Illustrator 13.0.2, SVG Export Plug-In . SVG Version: 6.00 Build 14948)  -->
<!DOCTYPE svg PUBLIC "-//W3C//DTD SVG 1.1//EN" "http://www.w3.org/Graphics/SVG/1.1/DTD/svg11.dtd" [
	<!ENTITY ns_extend "http://ns.adobe.com/Extensibility/1.0/">
	<!ENTITY ns_ai "http://ns.adobe.com/AdobeIllustrator/10.0/">
	<!ENTITY ns_graphs "http://ns.adobe.com/Graphs/1.0/">
	<!ENTITY ns_vars "http://ns.adobe.com/Variables/1.0/">
	<!ENTITY ns_imrep "http://ns.adobe.com/ImageReplacement/1.0/">
	<!ENTITY ns_sfw "http://ns.adobe.com/SaveForWeb/1.0/">
	<!ENTITY ns_custom "http://ns.adobe.com/GenericCustomNamespace/1.0/">
	<!ENTITY ns_adobe_xpath "http://ns.adobe.com/XPath/1.0/">
]>
<svg version="1.1" id="Layer_1" xmlns:x="&ns_extend;" xmlns:i="&ns_ai;" xmlns:graph="&ns_graphs;"
	 xmlns="http://www.w3.org/2000/svg" xmlns:xlink="http://www.w3.org/1999/xlink" x="0px" y="0px" width="70px" height="70px"
	 viewBox="0 0 70 70" enable-background="new 0 0 70 70" xml:space="preserve">
<metadata>
	<sfw  xmlns="&ns_sfw;">
		<slices></slices>
		<sliceSourceBounds  x="0.5" y="-0.5" width="70" height="70" bottomLeftOrigin="true"></sliceSourceBounds>
	</sfw>
</metadata>
<rect fill="none" width="70" height="70"/>
<path fill="#F58231" d="M47.1,36.7c-0.5-0.8-1.199-1.6-1.899-2.3c-0.601-0.6-1-0.9-1.601-1.2h1.7l0,0h23.5l-6.1-4.8
	c-1.2-5.3-3.8-10-7.4-13.8l-8.6,10.9l-0.4-4L57.9,10.1L50.2,11c-4.5-3-9.7-4.5-15-4.6l1.5,13c-0.5,0-1,0-1.6,0c-0.5,0-1,0-1.5,0.1
	V1.2l-4.8,6.1c-5.3,1.2-10,3.8-13.8,7.4l9.9,7.7c-0.9,0.7-1.7,1.4-2.4,2.3L9.9,12.2l1,7.7c-2.9,4.6-4.4,9.8-4.5,15l15-1.8
	c0.2,0.5,0.4,0.9,0.7,1.3c0.7,1.1,1.6,1.9,2.5,2.7H1.3L7.4,41.9c1.2,5.3,3.8,10,7.4,13.8l6.8-8.7v3.1h1.2L13,60.7l7.6-1.3
	c4.7,2.699,9.9,4,15.2,3.8l-1.8-11c0.9,0,1.9-0.101,3-0.3V68l4.8-6.1c5.3-1.2,10-3.801,13.8-7.4l-9.3-7.3c0.2-0.2,0.3-0.4,0.5-0.601
	C47.1,46.2,47.4,45.7,47.7,45.2l12.2,12.2l-1-7.7c2.899-4.601,4.399-9.8,4.5-15L47.1,36.7z M56.5,25.7l-9.2,6.2l-0.5-4.3L56.5,25.7z
	 M43.7,13.5l-1.5,7.2c-0.4-0.1-1-0.3-1.7-0.5c-0.4-0.1-0.8-0.2-1.2-0.3L43.7,13.5z M30.4,20.1c-1,0.2-2,0.6-2.9,1L26,13.5L30.4,20.1
	z M13.2,26.2l8,1.6c-0.2,0.8-0.3,1.6-0.3,2.4c0,0.4,0,0.8,0.1,1.2L13.2,26.2z M13.5,44.6l8.2-5.1V43L13.5,44.6z M26.8,56.8l0.9-5.8
	c0.7,0.2,1.4,0.5,2.2,0.7L26.8,56.8z M41.1,50.7c0.5-0.2,1-0.4,1.5-0.7c0.2-0.1,0.5-0.3,0.7-0.4l1.2,6.2L41.1,50.7z M44.2,45.6
	c-0.4,0.5-0.9,0.9-1.4,1.301c-0.899,0.699-2,1.199-3.1,1.6c-0.9,0.3-1.8,0.6-2.7,0.8c-1.1,0.2-2.2,0.3-3.1,0.3c-0.1,0-0.2,0-0.3,0
	c-0.7,0-1.5-0.1-2.2-0.3c-1.2-0.2-2.3-0.6-3.2-1c-1.5-0.6-2.6-1.1-2.8-1.1c0,0,0,0-0.1,0c-0.5,0-1,0-1,0v-3.8V42.3v-2.6h2
	c0,1.6,0.8,3.1,1.9,4.3c0.2,0.2,0.3,0.4,0.5,0.5c1.2,1.2,2.8,2,4,2.5c0.2,0.1,0.3,0.1,0.5,0.2c0.5,0.1,0.9,0.2,1.2,0.2
	c1,0,1.9-0.2,2.6-0.601c0.4-0.2,0.7-0.5,1-0.899c0.4-0.601,0.7-1.4,0.7-2.301c0-2.5-3-3.6-6.5-5.199c-3.5-1.601-8.8-4.4-8.8-8.3
	c0-0.7,0.1-1.3,0.3-1.9c0.2-0.6,0.4-1.1,0.7-1.6c0.6-1,1.5-1.9,2.6-2.5c0.3-0.2,0.6-0.4,1-0.5c1.2-0.6,2.6-1,4-1.3
	c0.5-0.1,1.1-0.2,1.6-0.2s1-0.1,1.5-0.1c0.7,0,1.3,0,1.8,0.1c0.3,0,0.6,0.1,0.899,0.1c1.9,0.2,3.101,0.7,4,0.9
	c0.4,0.1,0.7,0.2,1,0.2c0.8,0,1,0,1,0L43.9,24l0.699,6.3H42.4c0-1.9-2.5-6.3-7.101-6.3c-0.6,0-1.2,0.1-1.7,0.2c-0.1,0-0.2,0-0.3,0.1
	c-1.9,0.5-2.5,1.8-2.5,3.2c0,2.6,3.6,3.9,6.9,5.2c4.3,1.7,8.3,5.1,8.3,8.2c0,0.1,0,0.199,0,0.3c0,0.7-0.1,1.3-0.4,1.899
	C45.3,44.1,44.8,44.9,44.2,45.6z M48.5,41.8c0-0.3,0-0.5,0-0.8c0-1.1-0.3-2.1-0.7-3l8.7,5.4L48.5,41.8z"/>
<path fill="#273272" d="M46,40.9c0-3.101-4-6.5-8.3-8.2c-3.4-1.3-6.9-2.6-6.9-5.2c0-1.4,0.6-2.7,2.5-3.2c0.1,0,0.2-0.1,0.3-0.1
	c0.5-0.1,1-0.2,1.7-0.2c4.7,0,7.101,4.3,7.101,6.3H44.6L43.9,24L43.8,23.3c0,0-0.2,0-1,0c-0.3,0-0.6-0.1-1-0.2
	c-0.899-0.2-2.1-0.7-4-0.9c-0.3,0-0.6-0.1-0.899-0.1c-0.601,0-1.2-0.1-1.8-0.1c-0.5,0-1,0-1.5,0.1c-0.5,0-1.1,0.1-1.6,0.2
	c-1.4,0.2-2.8,0.7-4,1.3c-0.3,0.2-0.7,0.3-1,0.5c-1.1,0.7-2,1.5-2.6,2.5c-0.3,0.5-0.6,1-0.7,1.6c-0.2,0.6-0.3,1.3-0.3,1.9
	c0,3.9,5.3,6.7,8.8,8.3c3.5,1.6,6.5,2.8,6.5,5.199c0,0.9-0.3,1.7-0.7,2.301C37.7,46.3,37.4,46.6,37,46.8
	c-0.7,0.4-1.6,0.601-2.6,0.601c-0.3,0-0.7-0.101-1.2-0.2c-0.2,0-0.3-0.101-0.5-0.2c-1.2-0.5-2.7-1.3-4-2.5c-0.2-0.2-0.4-0.3-0.5-0.5
	c-1.1-1.2-1.9-2.7-1.9-4.3h-2v2.6V43.4v3.8c0,0,0.5,0,1,0c0,0,0,0,0.1,0c0.2,0,1.3,0.6,2.8,1.1c0.9,0.4,2,0.7,3.2,1
	c0.7,0.2,1.5,0.2,2.2,0.3c0.1,0,0.2,0,0.3,0c0.9,0,2-0.1,3.1-0.3c0.9-0.2,1.8-0.399,2.7-0.8c1.1-0.4,2.2-1,3.1-1.6
	c0.5-0.4,1-0.801,1.4-1.301c0.6-0.699,1.1-1.5,1.399-2.399C45.8,42.6,45.9,42,46,41.3C46,41.2,46,41.1,46,40.9z"/>
</svg>
