<?xml version="1.0" encoding="utf-8"?>
<!-- Generator: Adobe Illustrator 21.1.0, SVG Export Plug-In . SVG Version: 6.00 Build 0)  -->
<svg version="1.1" id="Layer_1" xmlns="http://www.w3.org/2000/svg" xmlns:xlink="http://www.w3.org/1999/xlink" x="0px" y="0px"
	 viewBox="0 0 70 70" style="enable-background:new 0 0 70 70;" xml:space="preserve">
<style type="text/css">
	.st0{fill:#0033A0;}
</style>
<g id="Logo">
	<path class="st0" d="M56.8,70c0.6-1.5,1.1-3.2,1.5-4.8c0.8-3.4,1.2-6.9,1.2-10.4c0-2.1-0.1-4.1-0.4-6.1c-0.2,2.9-0.7,5.5-0.7,5.5
		c0.1,0.4,0.3,1,0.4,1.4l0,0c-0.3,3-0.9,5.9-1.7,8.7c-0.4-1.4-0.9-2.8-0.9-2.8l0,0c-1,2.8-2.6,6-4,8.6L56.8,70L56.8,70z"/>
	<path class="st0" d="M47.2,70h2.6c7.5-11,7.9-20.8,7.9-22.7c0-3.6-0.6-6.8-1.6-9.4c0,0-1.5-4-4-7.6c0.3,0.8,0.8,2.4,1,3.9
		c0,0.1,0,0.2,0,0.3c0.5,0.8,2.6,4.6,2.9,8.8l0,0c0,0-1.5-2.1-2.7-3.5c0,2.3-0.3,4.6-0.8,6.8c0,0,2.2,2.6,3.3,4.3
		c0,0-0.7,3.7-2.1,7.2c-1.5-2.2-3.4-4.3-3.4-4.3c-1.1,2.8-2.5,5.5-4.1,8.1c0,0,2.8,3.4,3.5,4.3C49,67.4,48.1,68.7,47.2,70z"/>
	<path class="st0" d="M37.9,70c5-5.5,9.2-12.1,11.7-19.1c2.2-6.1,3.4-13.5,1.5-20.1c-0.1-0.4-0.3-0.9-0.4-1.3
		c-0.6-1.6-1.4-3-2.3-4.1c-2.4-2.7-5.1-5-8-7c0.4,0.6,0.8,1.1,1.2,1.7c0,0,3.6,2.7,5.7,5.4c-2.7-1.9-4.2-2.7-4.4-2.8c0,0,0,0,0,0
		c1,2.5,1.3,4.6,1.3,4.6c0,0,3.2,1.7,6,4.1c0.4,1.8,0.6,3.7,0.5,5.6c-2.9-2.5-6.2-4.5-6.2-4.5c0,2.1-0.3,4.3-0.8,6.4
		c0,0,3.1,2,6.2,4.8c0,0-0.9,4-2.3,7c-2.9-2.8-5.8-4.9-6-5c0,0-1.5,3.8-3.8,7.6c3,2.6,5.7,5.2,5.7,5.2c-1.7,2.6-3.6,5.2-5.7,7.5l0,0
		l-5.3-5.2c-2.1,2.7-4.5,5.2-7,7.4c0.1,0.1,1.2,1.3,1.6,1.8H37.9z"/>
	<path class="st0" d="M39.2,18.9c-0.3-0.5-0.7-0.9-1.2-1.4c-0.4-0.4-0.8-0.7-1.2-1c-4.4-3.3-12.5-4.9-12.5-4.9
		c0.8,0.4,1.4,0.8,1.4,0.8c0,0,3.3,0.8,6.2,2.2c0,0-2.6-0.6-4.3-0.8c0.7,0.6,1.4,1.3,1.9,2.1c0,0,5.4,1,7.7,2.3c0,0,1.1,1.2,2.1,3.2
		c-3.7-1.5-7.8-2.3-7.8-2.3c0.6,1.2,0.9,2.6,1.2,4c0,0,4.6,1.1,8,2.8c0.3,1.6,0.4,3.3,0.3,5c-4.1-2.1-8.1-3.3-8.1-3.3
		c-0.1,1.8-0.3,3.6-0.9,5.5c0,0,5.5,2.5,8,4c-0.6,2.2-1.3,4.3-2.2,6.4c-3.8-2.4-7.8-4.6-7.8-4.6c-1,2.4-3.5,6.4-3.5,6.4l0,0l0,0l0,0
		c0,0,4.2,2.9,7.3,5.4c-1.6,2.4-3.4,4.7-5.3,6.8c-0.6-0.6-6.7-6-6.7-6c-1.8,2.1-3.9,4.2-6.1,6.2l0,0l5.8,6.6l0,0l0,0
		c-3.8,3.1-7.6,5.5-7.6,5.5l-4.9-6.9c0,0-3.4,2.6-9.2,5.4v2h19.1C40.4,53.9,48,30.8,39.2,18.9z"/>
	<path class="st0" d="M28.4,16.5c-5.3-7.1-13.5-6.1-16-5.8c-2.7,0.4-4.8,1-4.8,1c0.6,0,1.4,0.2,2,0.3c0.4-0.1,4.3-1,7-0.6l0,0
		c-2,0.2-4.8,1-5.1,1.1l0,0l0,0c0.1,0,0.9,0.3,1.9,0.9c0.3-0.1,4.1-1.1,7.6-1.2l0,0c0,0,1.3,0.6,2.6,1.5c-4.6,0-8.5,0.9-8.6,0.9
		c0.6,0.5,1.1,1.1,1.6,1.8c5.1-0.8,9.5-0.4,9.5-0.4s0.6,0.7,0.9,1.1c0.3,0.5,0.7,1.1,0.9,1.6c-5.2-0.6-10.1-0.2-10.1-0.2
		c0.3,0.9,0.6,1.8,0.7,2.8c0.6,0,5,0,10.6,1c0.2,1.3,0.2,2.7,0,4.1c-0.9-0.3-5.5-1.4-10.6-1.9c-0.1,1.2-0.3,2.6-0.7,3.9
		c0.6,0.1,6.7,1.6,10.2,3c-0.1,0.2-0.1,0.4-0.2,0.6c-0.5,1.5-1.1,3-1.8,4.5c-2.8-1.4-9.6-4-9.6-4c-0.7,1.5-1.5,3.1-2.5,4.6
		c0,0,5.9,3.4,8.7,5.2c-1.3,1.8-2.8,3.7-4.4,5.5c-2.1-1.8-7.2-5.8-7.6-6.1c-1.7,2-3.7,4-4.4,4.6l6.1,7c0,0-0.1,0.1-0.2,0.2
		c-1.3,1.1-2.8,2.1-4,3c-1.1,0.7-1.9,1.3-2.2,1.5C6,57.9,2,51.5,1.4,50.5c-0.4,0.3-0.9,0.6-1.3,0.9v13.2c0.7-0.3,1.5-0.7,2.2-1.1
		c3.5-1.7,6.8-3.9,10-6.4c2-1.6,4.1-3.5,6.2-5.6c2.5-2.5,4.6-5.2,6.4-7.9C31.6,33.7,33.5,23.2,28.4,16.5z"/>
	<path class="st0" d="M14.7,16c-2.5-2.9-6.7-3.9-11.6-3.2c-0.1,0-0.3,0-0.4,0C2.4,12.9,2,13,1.7,13c-0.7,0.2-1.2,0.3-1.5,0.5V15
		c0.5-0.4,1-0.7,1.5-1.1c1-0.2,1.9-0.3,2.8-0.4c-1.4,0.8-3,1.9-4.3,2.9v1.1l0,0c0,0,3.6-2.8,6.4-4c0.7,0,1.3,0.1,2,0.3
		c-4.3,1.8-7.3,4-7.6,4.2c0.4,0.3,0.8,0.6,0.9,0.6c0,0,4.2-2.6,8.7-4.1c0.6,0.3,1.2,0.6,1.7,1c-4.9,1.4-9.7,3.9-9.7,3.9
		c0.3,0.3,0.5,0.6,0.7,1c0,0,0,0,0.1,0c5-2.1,10.4-3.3,10.4-3.3c0.4,0.6,0.8,1.2,1,1.9c0,0-4.8,0.6-11,2.5C4.1,22.4,4.1,23,4.1,23
		s5.8-1.3,11.2-1.5c0.1,0.9,0,1.8-0.1,2.8c-3.2-0.2-10.7,0.2-11,0.3c0,0,0,1.1-0.3,2.1c0,0,5.5,0.2,10.6,1.1
		c-0.4,1.2-0.9,2.4-1.5,3.6c-3.4-1-8.5-2.2-9.8-2.5c-0.3,0.9-0.8,1.7-1.3,2.6c0,0,6.2,2.7,8.6,4l0,0l0,0c-1,1.5-3.1,3.7-3.1,3.7
		c-0.6-0.4-1.2-0.9-1.7-1.2c-1.6-1.2-4.1-2.9-5.6-3.9l0,0v5.2L3.4,43c-1.1,0.9-2.1,1.6-3.2,2.3v3.1c0,0,0.1,0,0.1-0.1
		c1.5-1,2.9-2.1,4.3-3.4C15.7,35.3,20.2,22.3,14.7,16z"/>
	<path class="st0" d="M0.1,30.7c2.8-4,3.3-8.7,0.8-11c-0.3-0.2-0.5-0.4-0.8-0.6V30.7z"/>
	<path class="st0" d="M15.6,8.9c25.2,0,45.8,20.6,45.8,45.9c0,5.2-0.9,10.3-2.5,15.1H70V0h-70v11.7h0C5.1,9.8,10.3,8.9,15.6,8.9z"/>
</g>
</svg>
